<svg width="200" height="200" xmlns="http://www.w3.org/2000/svg"><path d="M63.229 18.23c2.799 0 5.405 1.076 7.355 3.032l71.355 71.483c.261.255.465.472.632.704l.422.532c2.08 2.09 3.103 4.55 3.103 7.154a9.677 9.677 0 0 1-2.94 6.978l-71.847 71.085c-1.943 1.916-4.538 2.973-7.305 2.973-2.704 0-5.26-1.025-7.193-2.885a10.001 10.001 0 0 1-3.029-7.132c0-2.634 1.048-5.129 2.956-7.025l64.814-64.118L55.91 35.198c-1.876-1.888-2.913-4.355-2.913-6.957 0-2.726 1.108-5.284 3.113-7.203 1.907-1.81 4.44-2.808 7.118-2.808z" fill="#a9b7b7"/></svg>